Format;Avi

File Size:4.3gb

Video: ID : 224 (0xE0)
Format : MPEG Video
Format version : Version 2
Format profile : Main@Main
Format settings, BVOP : Yes
Format settings, Matrix : Default
Format settings, GOP : M=3, N=15
Duration : 5mn 18s
Bit rate mode : Variable
Bit rate : 5 057 Kbps
Nominal bit rate : 8 808 Kbps
Width : 720 pixels
Height : 480 pixels
Display aspect ratio : 4:3
Frame rate : 29.970 fps
Standard : NTSC
Color space : YUV
Chroma subsampling : 4:2:0
Bit depth : 8 bits
Scan type : Progressive
Bits/(Pixel*Frame) : 0.488
Stream size : 192 MiB (94%)

Audio: ID : 128 (0x80)
Format : AC-3
Format/Info : Audio Coding 3
Mode extension : CM (complete main)
Duration : 5mn 19s
Bit rate mode : Constant
Bit rate : 192 Kbps
Channel(s) : 2 channels
Channel positions : Front: L R
Sampling rate : 48.0 KHz
Bit depth : 16 bits
Video delay : -419ms
Stream size : 7.31 MiB (4%)


Duration:1:54

Release Date:2010

Language:English


Plot: Each of the women portray one of the characters represented in the collection of twenty poems, revealing different issues that impact women in general and women of color in particular.

Cast: Kimberly Elise ...
Crystal / Brown
Janet Jackson Janet Jackson ...
Jo / Red
Loretta Devine Loretta Devine ...
Juanita / Green
Thandie Newton Thandie Newton ...
Tangie / Orange
Anika Noni Rose Anika Noni Rose ...
Yasmine / Yellow
Kerry Washington Kerry Washington ...
Kelly / Blue
Tessa Thompson Tessa Thompson ...
Nyla / Purple
Phylicia Rashad Phylicia Rashad ...
Gilda
Whoopi Goldberg Whoopi Goldberg ...
Alice / White

